<?xml version="1.0" encoding="utf-8"?>
<!-- Generator: Adobe Illustrator 27.4.0, SVG Export Plug-In . SVG Version: 6.00 Build 0)  -->
<svg version="1.1" id="Capa_1" xmlns="http://www.w3.org/2000/svg" xmlns:xlink="http://www.w3.org/1999/xlink" x="0px" y="0px"
	 viewBox="0 0 1080 1080" style="enable-background:new 0 0 1080 1080;" xml:space="preserve">
<style type="text/css">
	.st0{fill:#FF0000;stroke:#FF0000;stroke-width:10;stroke-miterlimit:10;}
	.st1{font-family:'ArialMT';}
	.st2{font-size:914.2993px;}
	.st3{fill:none;}
	.st4{fill:#FF00FF;stroke:#FF00FF;stroke-miterlimit:10;}
</style>
<text transform="matrix(1 0 0 1 87.3408 680.0198)" class="st0 st1 st2">S</text>
<rect x="617.7" y="231.6" class="st3" width="506.5" height="35.1"/>
<path class="st4" d="M872.5,399c-39.7-35.7-102.1-55.5-187.4-55.5c-69.4,0-123.9,5.9-165.6,12.9v660.2h86.2V748.9
	c19.8,5,43.6,5.9,69.4,5.9c84.3,0,158.6-24.8,204.2-73.4c33.7-34.7,51.5-82.3,51.5-142.8C931,479.3,909.2,430.7,872.5,399z
	 M677.2,685.5c-28.8,0-52.5-2-71.4-6.9V418.8c14.9-4,43.6-6.9,81.3-6.9c95.2,0,157.6,42.6,157.6,130.9
	C844.8,634.9,781.3,685.5,677.2,685.5z"/>
</svg>
