<?xml version="1.0" encoding="utf-8"?>
<!-- Generator: Adobe Illustrator 27.4.0, SVG Export Plug-In . SVG Version: 6.00 Build 0)  -->
<svg version="1.1" id="Capa_1" xmlns="http://www.w3.org/2000/svg" xmlns:xlink="http://www.w3.org/1999/xlink" x="0px" y="0px"
	 viewBox="0 0 1080 1080" style="enable-background:new 0 0 1080 1080;" xml:space="preserve">
<style type="text/css">
	.st0{fill:none;stroke:#FF0000;stroke-width:10;stroke-miterlimit:10;}
	.st1{font-family:'MyriadPro-Regular';}
	.st2{font-size:612px;}
	.st3{fill:none;stroke:#000000;stroke-width:10;stroke-miterlimit:10;}
	.st4{font-size:412px;}
	.st5{fill:none;}
	.st6{fill:none;stroke:#FF00FF;stroke-width:10;stroke-miterlimit:10;}
</style>
<text transform="matrix(1 0 0 1 32.208 468.7012)" class="st0 st1 st2">S</text>
<text transform="matrix(1 0 0 1 338.5586 474.4287)" class="st3 st1 st4">an</text>
<rect x="617.71" y="231.64" class="st5" width="506.49" height="35.06"/>
<path class="st6" d="M341.47,421.36c-24.48-22.03-63.04-34.27-115.67-34.27c-42.84,0-76.5,3.67-102.2,7.96v407.59h53.24V637.4
	c12.24,3.06,26.93,3.67,42.84,3.67c52.02,0,97.92-15.3,126.07-45.29c20.81-21.42,31.82-50.8,31.82-88.13
	C377.58,470.93,364.12,440.95,341.47,421.36z M220.91,598.23c-17.75,0-32.44-1.22-44.06-4.28V433.6c9.18-2.45,26.93-4.29,50.18-4.29
	c58.75,0,97.31,26.32,97.31,80.79C324.34,567.02,285.17,598.23,220.91,598.23z"/>
<text transform="matrix(1 0 0 1 267.7012 815.0645)" class="st3 st1 st4">edro</text>
</svg>
